<svg id="visual" viewBox="0 0 960 540" width="960" height="540" xmlns="http://www.w3.org/2000/svg" xmlns:xlink="http://www.w3.org/1999/xlink" version="1.1"><rect x="0" y="0" width="960" height="540" fill="#1f1f1f"></rect><path d="M0 166L10.7 162.8C21.3 159.7 42.7 153.3 64 150.8C85.3 148.3 106.7 149.7 128 154.5C149.3 159.3 170.7 167.7 192 169.2C213.3 170.7 234.7 165.3 256 164.3C277.3 163.3 298.7 166.7 320 169C341.3 171.3 362.7 172.7 384 169.5C405.3 166.3 426.7 158.7 448 156.7C469.3 154.7 490.7 158.3 512 161.2C533.3 164 554.7 166 576 163.3C597.3 160.7 618.7 153.3 640 153.2C661.3 153 682.7 160 704 166C725.3 172 746.7 177 768 174.8C789.3 172.7 810.7 163.3 832 157.3C853.3 151.3 874.7 148.7 896 151C917.3 153.3 938.7 160.7 949.3 164.3L960 168L960 0L949.3 0C938.7 0 917.3 0 896 0C874.7 0 853.3 0 832 0C810.7 0 789.3 0 768 0C746.7 0 725.3 0 704 0C682.7 0 661.3 0 640 0C618.7 0 597.3 0 576 0C554.7 0 533.3 0 512 0C490.7 0 469.3 0 448 0C426.7 0 405.3 0 384 0C362.7 0 341.3 0 320 0C298.7 0 277.3 0 256 0C234.7 0 213.3 0 192 0C170.7 0 149.3 0 128 0C106.7 0 85.3 0 64 0C42.7 0 21.3 0 10.7 0L0 0Z" fill="#1f1f1f"></path><path d="M0 124L10.7 122.8C21.3 121.7 42.7 119.3 64 119.7C85.3 120 106.7 123 128 121.2C149.3 119.3 170.7 112.7 192 112C213.3 111.3 234.7 116.7 256 116.7C277.3 116.7 298.7 111.3 320 114.5C341.3 117.7 362.7 129.3 384 131C405.3 132.7 426.7 124.3 448 123.3C469.3 122.3 490.7 128.7 512 132.2C533.3 135.7 554.7 136.3 576 135.8C597.3 135.3 618.7 133.7 640 131.7C661.3 129.7 682.7 127.3 704 126.7C725.3 126 746.7 127 768 125.8C789.3 124.7 810.7 121.3 832 121.8C853.3 122.3 874.7 126.7 896 126.3C917.3 126 938.7 121 949.3 118.5L960 116L960 0L949.3 0C938.7 0 917.3 0 896 0C874.7 0 853.3 0 832 0C810.7 0 789.3 0 768 0C746.7 0 725.3 0 704 0C682.7 0 661.3 0 640 0C618.7 0 597.3 0 576 0C554.7 0 533.3 0 512 0C490.7 0 469.3 0 448 0C426.7 0 405.3 0 384 0C362.7 0 341.3 0 320 0C298.7 0 277.3 0 256 0C234.7 0 213.3 0 192 0C170.7 0 149.3 0 128 0C106.7 0 85.3 0 64 0C42.7 0 21.3 0 10.7 0L0 0Z" fill="#442824"></path><path d="M0 74L10.7 77.2C21.3 80.3 42.7 86.7 64 89.5C85.3 92.3 106.7 91.7 128 91.3C149.3 91 170.7 91 192 89.7C213.3 88.3 234.7 85.7 256 86.2C277.3 86.7 298.7 90.3 320 89C341.3 87.7 362.7 81.3 384 82C405.3 82.7 426.7 90.3 448 90.7C469.3 91 490.7 84 512 83C533.3 82 554.7 87 576 91C597.3 95 618.7 98 640 99.3C661.3 100.7 682.7 100.3 704 96.7C725.3 93 746.7 86 768 82C789.3 78 810.7 77 832 74.8C853.3 72.7 874.7 69.3 896 72.7C917.3 76 938.7 86 949.3 91L960 96L960 0L949.3 0C938.7 0 917.3 0 896 0C874.7 0 853.3 0 832 0C810.7 0 789.3 0 768 0C746.7 0 725.3 0 704 0C682.7 0 661.3 0 640 0C618.7 0 597.3 0 576 0C554.7 0 533.3 0 512 0C490.7 0 469.3 0 448 0C426.7 0 405.3 0 384 0C362.7 0 341.3 0 320 0C298.7 0 277.3 0 256 0C234.7 0 213.3 0 192 0C170.7 0 149.3 0 128 0C106.7 0 85.3 0 64 0C42.7 0 21.3 0 10.7 0L0 0Z" fill="#692f2a"></path><path d="M0 54L10.7 54C21.3 54 42.7 54 64 53.5C85.3 53 106.7 52 128 50.7C149.3 49.3 170.7 47.7 192 47C213.3 46.3 234.7 46.7 256 45.7C277.3 44.7 298.7 42.3 320 41.7C341.3 41 362.7 42 384 43.8C405.3 45.7 426.7 48.3 448 45.3C469.3 42.3 490.7 33.7 512 29.7C533.3 25.7 554.7 26.3 576 30.5C597.3 34.7 618.7 42.3 640 43.2C661.3 44 682.7 38 704 34.8C725.3 31.7 746.7 31.3 768 32.8C789.3 34.3 810.7 37.7 832 38.7C853.3 39.7 874.7 38.3 896 39.8C917.3 41.3 938.7 45.7 949.3 47.8L960 50L960 0L949.3 0C938.7 0 917.3 0 896 0C874.7 0 853.3 0 832 0C810.7 0 789.3 0 768 0C746.7 0 725.3 0 704 0C682.7 0 661.3 0 640 0C618.7 0 597.3 0 576 0C554.7 0 533.3 0 512 0C490.7 0 469.3 0 448 0C426.7 0 405.3 0 384 0C362.7 0 341.3 0 320 0C298.7 0 277.3 0 256 0C234.7 0 213.3 0 192 0C170.7 0 149.3 0 128 0C106.7 0 85.3 0 64 0C42.7 0 21.3 0 10.7 0L0 0Z" fill="#8f352f"></path></svg>